<?xml version="1.0" encoding="UTF-8" standalone="no"?>
<!DOCTYPE svg PUBLIC "-//W3C//DTD SVG 1.1//EN"
 "http://www.w3.org/Graphics/SVG/1.1/DTD/svg11.dtd">
<!-- Generated by graphviz version 2.40.1 (20161225.0304)
 -->
<!-- Title: G Pages: 1 -->
<svg width="453pt" height="136pt"
 viewBox="0.00 0.00 453.00 136.00" xmlns="http://www.w3.org/2000/svg" xmlns:xlink="http://www.w3.org/1999/xlink">
<g id="graph0" class="graph" transform="scale(1 1) rotate(0) translate(4 132)">
<title>G</title>
<polygon fill="#ffffff" stroke="transparent" points="-4,4 -4,-132 449,-132 449,4 -4,4"/>
<!-- epi&#45;types -->
<g id="node1" class="node">
<title>epi&#45;types</title>
<g id="a_node1"><a xlink:href="https://github.com/aezarebski/epi-types" xlink:title="epi&#45;types">
<path fill="#c994c7" stroke="#756bb1" stroke-width="3" d="M54,-105C54,-105 12,-105 12,-105 6,-105 0,-99 0,-93 0,-93 0,-81 0,-81 0,-75 6,-69 12,-69 12,-69 54,-69 54,-69 60,-69 66,-75 66,-81 66,-81 66,-93 66,-93 66,-99 60,-105 54,-105"/>
<text text-anchor="middle" x="33" y="-83.3" font-family="Times,serif" font-size="14.00" fill="#000000">epi&#45;types</text>
</a>
</g>
</g>
<!-- epi&#45;sim -->
<g id="node2" class="node">
<title>epi&#45;sim</title>
<g id="a_node2"><a xlink:href="https://github.com/aezarebski/epi-sim" xlink:title="epi&#45;sim">
<path fill="#c994c7" stroke="#756bb1" stroke-width="3" d="M148,-82C148,-82 114,-82 114,-82 108,-82 102,-76 102,-70 102,-70 102,-58 102,-58 102,-52 108,-46 114,-46 114,-46 148,-46 148,-46 154,-46 160,-52 160,-58 160,-58 160,-70 160,-70 160,-76 154,-82 148,-82"/>
<text text-anchor="middle" x="131" y="-60.3" font-family="Times,serif" font-size="14.00" fill="#000000">epi&#45;sim</text>
</a>
</g>
</g>
<!-- epi&#45;types&#45;&gt;epi&#45;sim -->
<g id="edge1" class="edge">
<title>epi&#45;types&#45;&gt;epi&#45;sim</title>
<path fill="none" stroke="#756bb1" stroke-width="3" d="M66.1783,-79.2132C74.4798,-77.2649 83.46,-75.1573 92.0148,-73.1496"/>
<polygon fill="#756bb1" stroke="#756bb1" stroke-width="3" points="101.7958,-70.854 93.0886,-77.5199 97.1566,-72.9701 92.2888,-74.1125 92.0604,-73.139 91.8319,-72.1654 96.6996,-71.023 91.0321,-68.758 101.7958,-70.854 101.7958,-70.854"/>
</g>
<!-- bdscod -->
<g id="node3" class="node">
<title>bdscod</title>
<g id="a_node3"><a xlink:href="https://github.com/aezarebski/bdscod" xlink:title="bdscod">
<path fill="#c994c7" stroke="#756bb1" stroke-width="3" d="M271,-128C271,-128 240,-128 240,-128 234,-128 228,-122 228,-116 228,-116 228,-104 228,-104 228,-98 234,-92 240,-92 240,-92 271,-92 271,-92 277,-92 283,-98 283,-104 283,-104 283,-116 283,-116 283,-122 277,-128 271,-128"/>
<text text-anchor="middle" x="255.5" y="-106.3" font-family="Times,serif" font-size="14.00" fill="#000000">bdscod</text>
</a>
</g>
</g>
<!-- epi&#45;types&#45;&gt;bdscod -->
<g id="edge2" class="edge">
<title>epi&#45;types&#45;&gt;bdscod</title>
<path fill="none" stroke="#756bb1" stroke-width="3" d="M66.3105,-90.4433C106.8792,-94.6369 175.2361,-101.7031 217.7263,-106.0953"/>
<polygon fill="#756bb1" stroke="#756bb1" stroke-width="3" points="227.9389,-107.151 217.5292,-110.5988 222.8626,-107.6315 217.8891,-107.1174 217.9919,-106.1227 218.0948,-105.128 223.0683,-105.6421 218.4547,-101.6465 227.9389,-107.151 227.9389,-107.151"/>
</g>
<!-- epi&#45;sim&#45;&gt;bdscod -->
<g id="edge3" class="edge">
<title>epi&#45;sim&#45;&gt;bdscod</title>
<path fill="none" stroke="#756bb1" stroke-width="3" d="M160.1897,-74.785C177.4918,-81.1777 199.5941,-89.344 218.1576,-96.2028"/>
<polygon fill="#756bb1" stroke="#756bb1" stroke-width="3" points="227.7752,-99.7563 216.8353,-100.5115 222.7385,-98.9614 218.0484,-97.2285 218.395,-96.2904 218.7416,-95.3524 223.4317,-97.0854 219.9546,-92.0694 227.7752,-99.7563 227.7752,-99.7563"/>
</g>
<!-- bdscod&#45;mcmc -->
<g id="node4" class="node">
<title>bdscod&#45;mcmc</title>
<g id="a_node4"><a xlink:href="https://github.com/aezarebski/bdscod-mcmc" xlink:title="bdscod&#45;mcmc">
<path fill="#c994c7" stroke="#756bb1" stroke-width="3" d="M433,-82C433,-82 363,-82 363,-82 357,-82 351,-76 351,-70 351,-70 351,-58 351,-58 351,-52 357,-46 363,-46 363,-46 433,-46 433,-46 439,-46 445,-52 445,-58 445,-58 445,-70 445,-70 445,-76 439,-82 433,-82"/>
<text text-anchor="middle" x="398" y="-60.3" font-family="Times,serif" font-size="14.00" fill="#000000">bdscod&#45;mcmc</text>
</a>
</g>
</g>
<!-- epi&#45;sim&#45;&gt;bdscod&#45;mcmc -->
<g id="edge4" class="edge">
<title>epi&#45;sim&#45;&gt;bdscod&#45;mcmc</title>
<path fill="none" stroke="#756bb1" stroke-width="3" d="M160.0819,-64C203.2156,-64 285.0136,-64 340.5176,-64"/>
<polygon fill="#756bb1" stroke="#756bb1" stroke-width="3" points="350.5602,-64 340.5603,-68.5001 345.5602,-65 340.5602,-65.0001 340.5602,-64.0001 340.5602,-63.0001 345.5602,-63 340.5602,-59.5001 350.5602,-64 350.5602,-64"/>
</g>
<!-- bdscod&#45;&gt;bdscod&#45;mcmc -->
<g id="edge5" class="edge">
<title>bdscod&#45;&gt;bdscod&#45;mcmc</title>
<path fill="none" stroke="#756bb1" stroke-width="3" d="M283.3137,-101.0215C299.8104,-95.6963 321.3306,-88.7494 341.2672,-82.3137"/>
<polygon fill="#756bb1" stroke="#756bb1" stroke-width="3" points="350.8981,-79.2048 342.7641,-86.5593 346.4471,-81.6925 341.6889,-83.2285 341.3817,-82.2769 341.0745,-81.3252 345.8327,-79.7892 339.9993,-77.9945 350.8981,-79.2048 350.8981,-79.2048"/>
</g>
<!-- mighty&#45;metropolis -->
<g id="node5" class="node">
<title>mighty&#45;metropolis</title>
<g id="a_node5"><a xlink:href="https://github.com/aezarebski/mighty-metropolis" xlink:title="mighty&#45;metropolis">
<path fill="#c994c7" stroke="#756bb1" stroke-width="3" d="M303,-36C303,-36 208,-36 208,-36 202,-36 196,-30 196,-24 196,-24 196,-12 196,-12 196,-6 202,0 208,0 208,0 303,0 303,0 309,0 315,-6 315,-12 315,-12 315,-24 315,-24 315,-30 309,-36 303,-36"/>
<text text-anchor="middle" x="255.5" y="-14.3" font-family="Times,serif" font-size="14.00" fill="#000000">mighty&#45;metropolis</text>
</a>
</g>
</g>
<!-- mighty&#45;metropolis&#45;&gt;bdscod&#45;mcmc -->
<g id="edge6" class="edge">
<title>mighty&#45;metropolis&#45;&gt;bdscod&#45;mcmc</title>
<path fill="none" stroke="#756bb1" stroke-width="3" d="M311.4108,-36.0484C321.1184,-39.1821 331.2249,-42.4445 340.9622,-45.5878"/>
<polygon fill="#756bb1" stroke="#756bb1" stroke-width="3" points="350.548,-48.6822 339.6491,-49.8925 345.4826,-48.0978 340.7244,-46.5618 341.0316,-45.6101 341.3388,-44.6585 346.097,-46.1945 342.414,-41.3277 350.548,-48.6822 350.548,-48.6822"/>
</g>
</g>
</svg>
